<!DOCTYPE svg PUBLIC "-//W3C//DTD SVG 20010904//EN" "http://www.w3.org/TR/2001/REC-SVG-20010904/DTD/svg10.dtd">
<svg version="1.0" xmlns="http://www.w3.org/2000/svg" width="784px" height="773px" viewBox="0 0 7840 7730" preserveAspectRatio="xMidYMid meet">
<g id="layer101" fill="#010101" stroke="none">
<path d="M2590 7101 c-8 -11 -165 -532 -349 -1160 -184 -628 -337 -1141 -341 -1141 -3 0 -149 489 -324 1088 -175 598 -327 1115 -338 1150 l-19 62 -264 0 -265 0 0 -28 c0 -15 207 -734 460 -1597 374 -1276 460 -1581 460 -1628 0 -47 -86 -352 -460 -1628 -253 -863 -460 -1576 -460 -1584 0 -13 39 -15 268 -15 l269 0 334 1140 c183 627 336 1140 339 1140 3 0 144 -476 314 -1058 170 -581 322 -1099 338 -1149 l29 -93 274 0 c245 0 275 2 275 16 0 12 625 2161 678 2331 5 16 104 -307 331 -1085 179 -609 335 -1142 348 -1185 l24 -77 274 0 c214 0 275 3 275 13 -1 18 664 2287 670 2287 3 0 156 -513 339 -1140 l334 -1140 269 0 c229 0 268 2 268 15 0 8 -209 728 -465 1601 -256 873 -465 1598 -465 1611 0 13 207 731 461 1596 254 865 464 1591 466 1615 l6 42 -266 0 -266 0 -19 -62 c-11 -35 -163 -552 -338 -1150 -175 -599 -321 -1088 -324 -1088 -4 0 -157 514 -341 1141 -184 628 -341 1150 -350 1160 -15 18 -35 19 -273 19 -222 0 -260 -2 -273 -16 -9 -9 -164 -520 -345 -1137 -180 -617 -329 -1126 -331 -1130 -1 -4 -151 499 -332 1119 -182 620 -337 1135 -346 1145 -15 18 -35 19 -275 19 -242 0 -260 -2 -274 -19z m615 -2047 c200 -685 325 -1128 325 -1154 0 -48 -671 -2353 -682 -2342 -3 4 -153 508 -332 1120 -257 879 -326 1125 -326 1170 0 46 67 286 337 1210 242 825 340 1146 345 1130 4 -13 154 -523 333 -1134z m1900 -3 c270 -923 335 -1155 335 -1202 0 -46 -63 -273 -326 -1171 -179 -612 -329 -1116 -332 -1120 -10 -10 -682 2293 -682 2338 -1 36 662 2325 667 2307 2 -5 154 -523 338 -1152z"/>
</g>
<g id="layer102" fill="#2e3586" stroke="none">
<path d="M710 7073 c0 -15 922 -3158 929 -3165 3 -4 58 171 121 388 153 524 129 524 281 4 62 -214 116 -390 119 -390 9 0 698 2365 690 2370 -8 6 -230 760 -230 784 0 37 -20 12 -38 -46 -10 -35 -166 -568 -347 -1185 -181 -618 -332 -1123 -335 -1123 -3 0 -153 505 -334 1123 -181 617 -337 1150 -348 1185 l-19 62 -244 0 c-135 0 -245 -3 -245 -7z"/>
<path d="M3110 7068 c0 -20 -223 -782 -231 -788 -4 -3 147 -530 335 -1172 l342 -1167 119 407 c66 224 122 409 126 412 4 3 -139 502 -317 1110 -178 608 -331 1129 -339 1158 -14 47 -35 71 -35 40z"/>
<path d="M4485 7028 c-8 -29 -161 -550 -339 -1158 -178 -608 -321 -1107 -316 -1110 4 -3 61 -188 126 -411 l119 -406 341 1166 c188 641 339 1168 334 1171 -8 6 -230 760 -230 784 0 34 -20 13 -35 -36z"/>
<path d="M5010 7068 c0 -20 -223 -782 -231 -788 -7 -5 680 -2363 691 -2373 3 -3 57 172 120 389 153 523 128 523 280 4 63 -214 117 -390 120 -390 4 0 898 3036 927 3148 l5 22 -245 0 -246 0 -20 -67 c-11 -38 -168 -571 -348 -1185 -180 -615 -330 -1118 -333 -1118 -3 0 -154 505 -335 1123 -181 617 -337 1150 -347 1185 -11 34 -23 62 -28 62 -6 0 -10 -6 -10 -12z"/>
<path d="M3205 2660 c-192 -655 -351 -1190 -355 -1190 -3 0 -159 522 -345 1160 -187 638 -343 1160 -346 1160 -3 0 -57 -177 -120 -392 -109 -373 -116 -393 -139 -396 -24 -3 -27 5 -140 393 -63 217 -117 395 -120 395 -3 0 -171 -566 -373 -1258 -202 -691 -410 -1400 -461 -1574 l-93 -318 247 0 247 0 344 1175 c189 646 346 1175 349 1175 3 0 81 -260 174 -578 470 -1607 521 -1777 526 -1746 3 17 55 200 115 407 147 503 124 504 275 -13 63 -214 117 -390 120 -390 10 0 699 2365 691 2370 -5 3 -61 185 -126 405 -64 220 -118 401 -119 402 -1 2 -159 -533 -351 -1187z"/>
<path d="M4063 3820 c-73 -256 -229 -776 -234 -780 -4 -3 151 -545 344 -1205 256 -874 353 -1192 357 -1169 3 17 55 200 115 407 147 503 123 504 275 -13 62 -214 116 -390 120 -390 3 0 158 522 345 1160 187 638 342 1160 345 1160 3 0 160 -529 349 -1175 l344 -1175 247 0 247 0 -93 318 c-51 174 -259 883 -461 1574 -202 692 -371 1258 -374 1258 -3 0 -57 -177 -120 -392 -109 -373 -116 -393 -139 -396 -24 -3 -27 6 -140 393 -63 217 -117 395 -120 395 -3 0 -158 -522 -344 -1160 -187 -638 -343 -1160 -346 -1160 -4 0 -161 528 -350 1173 -188 644 -346 1181 -350 1192 -6 17 -9 15 -17 -15z"/>
</g>
<g id="layer103" fill="#ffffff" stroke="none">
<path d="M2642 7063 c3 -10 54 -185 113 -390 l109 -372 107 366 c59 201 110 376 113 389 l6 24 -226 0 c-211 0 -226 -1 -222 -17z"/>
<path d="M4542 7063 c3 -10 54 -185 113 -390 l109 -372 107 366 c59 201 110 376 113 389 l6 24 -226 0 c-211 0 -226 -1 -222 -17z"/>
<path d="M3692 4318 l-123 -421 123 -418 122 -419 124 421 123 421 -122 416 c-67 230 -122 418 -123 419 0 0 -56 -188 -124 -419z"/>
<path d="M1776 4262 c-66 -224 -119 -411 -119 -417 0 -21 238 -823 243 -819 3 3 59 190 126 415 l120 411 -120 409 c-66 225 -122 409 -125 409 -3 0 -60 -183 -125 -408z"/>
<path d="M5606 4262 c-66 -224 -119 -414 -118 -422 4 -42 241 -823 246 -810 15 39 236 802 236 818 1 22 -232 822 -240 822 -3 0 -59 -183 -124 -408z"/>
<path d="M2731 1040 c-62 -215 -111 -393 -109 -396 3 -2 108 -3 234 -2 l230 3 -115 393 c-63 215 -118 392 -121 392 -3 0 -56 -176 -119 -390z"/>
<path d="M4661 1040 c-62 -215 -111 -393 -109 -396 3 -2 108 -3 234 -2 l229 3 -115 393 c-63 215 -117 392 -120 392 -3 0 -56 -176 -119 -390z"/>
</g>


</svg>